<svg version="1.1" id="Layer_1" xmlns="http://www.w3.org/2000/svg" xmlns:xlink="http://www.w3.org/1999/xlink" x="0px" y="0px"
	 width="100%" viewBox="0 0 562 516" enable-background="new 0 0 562 516" xml:space="preserve">
<path fill="#F7F7F7" opacity="1.000000" stroke="none" 
	d="
M1.000000,182.000000 
	C1.000000,121.333336 1.000000,61.166668 1.000000,1.000000 
	C188.333328,1.000000 375.666656,1.000000 563.000000,1.000000 
	C563.000000,173.000000 563.000000,345.000000 563.000000,517.000000 
	C375.666656,517.000000 188.333328,517.000000 1.000000,517.000000 
	C1.000000,405.500000 1.000000,294.000000 1.000000,182.000000 
M27.999937,153.500000 
	C27.999958,247.154495 27.994608,340.808990 28.002687,434.463470 
	C28.005846,471.095581 53.925964,496.988556 90.597099,496.997192 
	C139.590805,497.008759 188.584503,497.000031 237.578201,497.000000 
	C318.234497,496.999939 398.890869,497.057098 479.547089,496.971985 
	C512.447815,496.937286 539.781433,470.971771 539.878235,438.816132 
	C540.154053,347.162231 540.005188,255.506912 539.933594,163.852234 
	C539.925110,152.979187 536.807495,142.849625 531.028931,133.606964 
	C522.147827,119.401825 509.395569,110.472824 492.999817,106.354027 
	C492.999817,99.484818 493.015106,92.839355 492.997253,86.193985 
	C492.904053,51.496204 466.645142,25.031219 432.071259,25.017326 
	C317.752625,24.971388 203.433960,24.976171 89.115349,25.014387 
	C54.468868,25.025969 28.081762,51.421459 28.008974,86.008560 
	C27.962332,108.172287 28.000040,130.336182 27.999937,153.500000 
z"/>
<path fill="#000000" opacity="1.000000" stroke="none" 
	d="
M27.999937,153.000000 
	C28.000040,130.336182 27.962332,108.172287 28.008974,86.008560 
	C28.081762,51.421459 54.468868,25.025969 89.115349,25.014387 
	C203.433960,24.976171 317.752625,24.971388 432.071259,25.017326 
	C466.645142,25.031219 492.904053,51.496204 492.997253,86.193985 
	C493.015106,92.839355 492.999817,99.484818 492.999817,106.354027 
	C509.395569,110.472824 522.147827,119.401825 531.028931,133.606964 
	C536.807495,142.849625 539.925110,152.979187 539.933594,163.852234 
	C540.005188,255.506912 540.154053,347.162231 539.878235,438.816132 
	C539.781433,470.971771 512.447815,496.937286 479.547089,496.971985 
	C398.890869,497.057098 318.234497,496.999939 237.578201,497.000000 
	C188.584503,497.000031 139.590805,497.008759 90.597099,496.997192 
	C53.925964,496.988556 28.005846,471.095581 28.002687,434.463470 
	C27.994608,340.808990 27.999958,247.154495 27.999937,153.000000 
M499.998962,165.765793 
	C499.487213,152.774002 491.379395,145.008453 478.208801,145.006790 
	C384.725342,144.994965 291.241882,145.000397 197.758423,145.000351 
	C195.969894,145.000351 194.181366,145.000366 191.999634,145.000366 
	C191.999634,142.985565 191.999634,141.363785 191.999634,139.742004 
	C191.999619,122.078461 192.025116,104.414879 191.991287,86.751396 
	C191.965378,73.217934 183.740707,65.017998 170.192581,65.006859 
	C143.863922,64.985199 117.535240,64.998245 91.206566,65.001236 
	C75.647850,65.002998 68.001541,72.691597 68.001312,88.341255 
	C67.999603,203.487549 67.999420,318.633820 68.001541,433.780121 
	C68.001831,449.317352 75.723549,456.998505 91.338936,456.998718 
	C219.816193,457.000366 348.293457,457.000488 476.770721,456.998474 
	C492.308044,456.998230 499.997925,449.272644 499.998383,433.661530 
	C500.000977,344.677277 499.999603,255.693024 499.998962,165.765793 
M315.773193,69.657173 
	C310.989044,68.104683 306.254547,65.427345 301.411285,65.213448 
	C287.623444,64.604515 273.791290,64.999565 259.976562,64.999527 
	C249.685028,64.999496 239.393509,64.999519 230.153961,64.999519 
	C231.017380,78.441299 231.862030,91.590652 232.708344,104.765884 
	C262.585083,104.765884 292.627686,104.765884 323.000366,104.765884 
	C323.000366,98.580414 322.892487,92.621536 323.029388,86.668274 
	C323.179443,80.143478 321.123962,74.603462 315.773193,69.657173 
M371.520660,64.999512 
	C367.714813,64.999512 363.908997,64.999512 361.152802,64.999512 
	C362.017578,78.442894 362.864166,91.603081 363.708313,104.725662 
	C393.292969,104.725662 423.022278,104.725662 453.000305,104.725662 
	C453.000305,98.481010 453.025299,92.508957 452.995239,86.537193 
	C452.928711,73.323853 444.669556,65.030113 431.488464,65.008171 
	C411.830109,64.975456 392.171661,64.999573 371.520660,64.999512 
z"/>
<path fill="#F7F7F7" opacity="1.000000" stroke="none" 
	d="
M499.999268,166.237274 
	C499.999603,255.693024 500.000977,344.677277 499.998383,433.661530 
	C499.997925,449.272644 492.308044,456.998230 476.770721,456.998474 
	C348.293457,457.000488 219.816193,457.000366 91.338936,456.998718 
	C75.723549,456.998505 68.001831,449.317352 68.001541,433.780121 
	C67.999420,318.633820 67.999603,203.487549 68.001312,88.341255 
	C68.001541,72.691597 75.647850,65.002998 91.206566,65.001236 
	C117.535240,64.998245 143.863922,64.985199 170.192581,65.006859 
	C183.740707,65.017998 191.965378,73.217934 191.991287,86.751396 
	C192.025116,104.414879 191.999619,122.078461 191.999634,139.742004 
	C191.999634,141.363785 191.999634,142.985565 191.999634,145.000366 
	C194.181366,145.000366 195.969894,145.000351 197.758423,145.000351 
	C291.241882,145.000397 384.725342,144.994965 478.208801,145.006790 
	C491.379395,145.008453 499.487213,152.774002 499.999268,166.237274 
z"/>
<path fill="#F7F7F7" opacity="1.000000" stroke="none" 
	d="
M316.053955,69.890045 
	C321.123962,74.603462 323.179443,80.143478 323.029388,86.668274 
	C322.892487,92.621536 323.000366,98.580414 323.000366,104.765884 
	C292.627686,104.765884 262.585083,104.765884 232.708344,104.765884 
	C231.862030,91.590652 231.017380,78.441299 230.153961,64.999519 
	C239.393509,64.999519 249.685028,64.999496 259.976562,64.999527 
	C273.791290,64.999565 287.623444,64.604515 301.411285,65.213448 
	C306.254547,65.427345 310.989044,68.104683 316.053955,69.890045 
z"/>
<path fill="#F7F7F7" opacity="1.000000" stroke="none" 
	d="
M372.016968,64.999512 
	C392.171661,64.999573 411.830109,64.975456 431.488464,65.008171 
	C444.669556,65.030113 452.928711,73.323853 452.995239,86.537193 
	C453.025299,92.508957 453.000305,98.481010 453.000305,104.725662 
	C423.022278,104.725662 393.292969,104.725662 363.708313,104.725662 
	C362.864166,91.603081 362.017578,78.442894 361.152802,64.999512 
	C363.908997,64.999512 367.714813,64.999512 372.016968,64.999512 
z"/>
</svg>